<svg width="110" height="76" viewBox="0 0 110 76" fill="none" xmlns="http://www.w3.org/2000/svg">
<path d="M35.9333 54.8077H49.8667V76H21.6333C9.31333 76 0 66.5 0 54.4423C0 43.9192 6.6 35.4423 17.6 32.5192C17.2333 31.4231 16.8667 28.8654 16.8667 26.3077C16.8667 19.3654 22 10.9615 33 10.9615C37.4 10.9615 38.8667 11.3269 41.8 13.1538C45.1 5.48077 52.8 0 63.4333 0C78.4667 0 88 11.3269 88 27.4038V32.8846C101.933 32.8846 110 43.1154 110 54.8077C110 67.2308 99.3667 76 89.4667 76H60.1333V54.8077H74.0667L55 32.5192L35.9333 54.8077Z" fill="url(#paint0_linear_1806_1942)"/>
<defs>
<linearGradient id="paint0_linear_1806_1942" x1="110" y1="76" x2="2.30833e-07" y2="-3.341e-07" gradientUnits="userSpaceOnUse">
<stop stop-color="#20451D"/>
<stop offset="1" stop-color="#66C25E"/>
</linearGradient>
</defs>
</svg>
