<svg width="330" height="228" viewBox="0 0 330 228" fill="none" xmlns="http://www.w3.org/2000/svg">
<path d="M107.8 164.423H149.6V228H64.8999C27.94 228 0 199.5 0 163.327C0 131.758 19.8 106.327 52.8 97.5576C51.6999 94.2693 50.6001 86.5962 50.6001 78.9231C50.6001 58.0962 66 32.8845 99 32.8845C112.2 32.8845 116.6 33.9807 125.4 39.4614C135.3 16.4423 158.4 0 190.3 0C235.4 0 264 33.9807 264 82.2114V98.6538C305.799 98.6538 330 129.346 330 164.423C330 201.692 298.1 228 268.4 228H180.4V164.423H222.2L165 97.5576L107.8 164.423Z" fill="url(#paint0_linear_1806_1942)"/>
<defs>
<linearGradient id="paint0_linear_1806_1942" x1="330" y1="228" x2="6.92498e-07" y2="-1.0023e-06" gradientUnits="userSpaceOnUse">
<stop stop-color="#20451D"/>
<stop offset="1" stop-color="#66C25E"/>
</linearGradient>
</defs>
</svg>
