<svg width="52" height="52" viewBox="0 0 52 52" fill="none" xmlns="http://www.w3.org/2000/svg">
<path d="M36.3845 3.7915H14.6248C14.0265 3.7915 13.5415 4.27651 13.5415 4.87484V47.1248C13.5415 47.7232 14.0265 48.2082 14.6248 48.2082H46.0415C46.6398 48.2082 47.1248 47.7232 47.1248 47.1248V14.5319C47.1248 14.2446 47.0107 13.969 46.8075 13.7659L37.1505 4.10881C36.9473 3.90563 36.6718 3.7915 36.3845 3.7915Z" fill="white" stroke="#979593" stroke-width="2" stroke-miterlimit="10"/>
<path d="M36.2915 3.7915V13.5415C36.2915 14.1398 36.7765 14.6248 37.3748 14.6248H47.1248" stroke="#979593" stroke-width="2" stroke-miterlimit="10"/>
<path d="M27.6252 33.0418H22.2085V31.9585H27.6252C27.9243 31.9585 28.1668 32.201 28.1668 32.5002C28.1668 32.7993 27.9243 33.0418 27.6252 33.0418ZM27.6252 29.7918H22.2085V28.7085H27.6252C27.9243 28.7085 28.1668 28.951 28.1668 29.2502C28.1668 29.5493 27.9243 29.7918 27.6252 29.7918ZM27.6252 26.5418H22.2085V25.4585H27.6252C27.9243 25.4585 28.1668 25.701 28.1668 26.0002C28.1668 26.2993 27.9243 26.5418 27.6252 26.5418ZM27.6252 23.2918H22.2085V22.2085H27.6252C27.9243 22.2085 28.1668 22.451 28.1668 22.7502C28.1668 23.0493 27.9243 23.2918 27.6252 23.2918ZM27.6252 36.2918H22.2085V35.2085H27.6252C27.9243 35.2085 28.1668 35.451 28.1668 35.7502C28.1668 36.0493 27.9243 36.2918 27.6252 36.2918ZM42.7918 33.0418H37.3752C37.076 33.0418 36.8335 32.7993 36.8335 32.5002C36.8335 32.201 37.076 31.9585 37.3752 31.9585H42.7918C43.091 31.9585 43.3335 32.201 43.3335 32.5002C43.3335 32.7993 43.091 33.0418 42.7918 33.0418ZM42.7918 36.2918H37.3752C37.076 36.2918 36.8335 36.0493 36.8335 35.7502C36.8335 35.451 37.076 35.2085 37.3752 35.2085H42.7918C43.091 35.2085 43.3335 35.451 43.3335 35.7502C43.3335 36.0493 43.091 36.2918 42.7918 36.2918ZM42.7918 29.7918H37.3752C37.076 29.7918 36.8335 29.5493 36.8335 29.2502C36.8335 28.951 37.076 28.7085 37.3752 28.7085H42.7918C43.091 28.7085 43.3335 28.951 43.3335 29.2502C43.3335 29.5493 43.091 29.7918 42.7918 29.7918ZM42.7918 26.5418H37.3752C37.076 26.5418 36.8335 26.2993 36.8335 26.0002C36.8335 25.701 37.076 25.4585 37.3752 25.4585H42.7918C43.091 25.4585 43.3335 25.701 43.3335 26.0002C43.3335 26.2993 43.091 26.5418 42.7918 26.5418ZM42.7918 23.2918H37.3752C37.076 23.2918 36.8335 23.0493 36.8335 22.7502C36.8335 22.451 37.076 22.2085 37.3752 22.2085H42.7918C43.091 22.2085 43.3335 22.451 43.3335 22.7502C43.3335 23.0493 43.091 23.2918 42.7918 23.2918ZM35.2085 33.0418H29.7918C29.4927 33.0418 29.2502 32.7993 29.2502 32.5002C29.2502 32.201 29.4927 31.9585 29.7918 31.9585H35.2085C35.5077 31.9585 35.7502 32.201 35.7502 32.5002C35.7502 32.7993 35.5077 33.0418 35.2085 33.0418ZM35.2085 36.2918H29.7918C29.4927 36.2918 29.2502 36.0493 29.2502 35.7502C29.2502 35.451 29.4927 35.2085 29.7918 35.2085H35.2085C35.5077 35.2085 35.7502 35.451 35.7502 35.7502C35.7502 36.0493 35.5077 36.2918 35.2085 36.2918ZM35.2085 29.7918H29.7918C29.4927 29.7918 29.2502 29.5493 29.2502 29.2502C29.2502 28.951 29.4927 28.7085 29.7918 28.7085H35.2085C35.5077 28.7085 35.7502 28.951 35.7502 29.2502C35.7502 29.5493 35.5077 29.7918 35.2085 29.7918ZM35.2085 26.5418H29.7918C29.4927 26.5418 29.2502 26.2993 29.2502 26.0002C29.2502 25.701 29.4927 25.4585 29.7918 25.4585H35.2085C35.5077 25.4585 35.7502 25.701 35.7502 26.0002C35.7502 26.2993 35.5077 26.5418 35.2085 26.5418ZM35.2085 23.2918H29.7918C29.4927 23.2918 29.2502 23.0493 29.2502 22.7502C29.2502 22.451 29.4927 22.2085 29.7918 22.2085H35.2085C35.5077 22.2085 35.7502 22.451 35.7502 22.7502C35.7502 23.0493 35.5077 23.2918 35.2085 23.2918Z" fill="#C8C6C4"/>
<path d="M6.50016 40.0832H23.8335C25.0301 40.0832 26.0002 39.1131 26.0002 37.9165V20.5832C26.0002 19.3866 25.0301 18.4165 23.8335 18.4165H6.50016C5.30357 18.4165 4.3335 19.3866 4.3335 20.5832V37.9165C4.3335 39.1131 5.30357 40.0832 6.50016 40.0832Z" fill="#107C41"/>
<path d="M9.18066 35.75L13.4516 29.2317L9.53984 22.75H12.6877L14.8232 26.893C15.0195 27.2858 15.1543 27.5792 15.2279 27.7724H15.2554C15.3972 27.4583 15.5442 27.153 15.6976 26.857L17.9801 22.75H20.8699L16.8571 29.1958L20.9714 35.75H17.8971L15.4305 31.1991C15.3263 31.0303 15.2279 30.8276 15.1359 30.5916H15.0993C15.0565 30.737 14.9613 30.9334 14.8142 31.1808L12.2736 35.75H9.18066Z" fill="white"/>
</svg>
